<svg id="visual" viewBox="0 0 900 900" width="900" height="900" xmlns="http://www.w3.org/2000/svg" xmlns:xlink="http://www.w3.org/1999/xlink" version="1.1"><rect x="0" y="0" width="900" height="900" fill="#931C1C"></rect><path d="M0 599L300 606L600 632L900 634L900 901L600 901L300 901L0 901Z" fill="#f5730a"></path><path d="M0 649L300 608L600 646L900 694L900 901L600 901L300 901L0 901Z" fill="#eb6a0a"></path><path d="M0 665L300 685L600 695L900 669L900 901L600 901L300 901L0 901Z" fill="#e16209"></path><path d="M0 664L300 720L600 714L900 731L900 901L600 901L300 901L0 901Z" fill="#d75909"></path><path d="M0 748L300 751L600 703L900 723L900 901L600 901L300 901L0 901Z" fill="#cd5108"></path><path d="M0 747L300 762L600 731L900 715L900 901L600 901L300 901L0 901Z" fill="#c34807"></path><path d="M0 732L300 745L600 788L900 759L900 901L600 901L300 901L0 901Z" fill="#b94007"></path><path d="M0 776L300 762L600 789L900 789L900 901L600 901L300 901L0 901Z" fill="#af3706"></path><path d="M0 787L300 809L600 789L900 785L900 901L600 901L300 901L0 901Z" fill="#a52f05"></path><path d="M0 836L300 805L600 805L900 820L900 901L600 901L300 901L0 901Z" fill="#9b2604"></path><path d="M0 857L300 834L600 850L900 836L900 901L600 901L300 901L0 901Z" fill="#911e02"></path><path d="M0 863L300 862L600 865L900 858L900 901L600 901L300 901L0 901Z" fill="#871400"></path></svg>